<svg xmlns="http://www.w3.org/2000/svg" viewBox="0 0 1000 2200">
  <!-- 배경 -->
  <rect width="1000" height="2200" fill="#ffffff"/>
  
  <!-- 헤더 -->
  <rect x="0" y="0" width="1000" height="70" fill="#ffffff" stroke="#f0f0f0" stroke-width="1"/>
  <rect x="50" y="15" width="120" height="40" fill="#f0f0f0" rx="5" ry="5"/>
  <text x="110" y="40" font-family="Arial" font-size="16" text-anchor="middle" fill="#333333">로고</text>
  
  <!-- 네비게이션 메뉴 -->
  <text x="550" y="40" font-family="Arial" font-size="14" text-anchor="middle" fill="#333333">기관소개</text>
  <text x="630" y="40" font-family="Arial" font-size="14" text-anchor="middle" fill="#333333">지원사업</text>
  <text x="710" y="40" font-family="Arial" font-size="14" text-anchor="middle" fill="#333333">후원참여</text>
  <text x="790" y="40" font-family="Arial" font-size="14" text-anchor="middle" fill="#333333">알림판</text>
  <text x="860" y="40" font-family="Arial" font-size="14" text-anchor="middle" fill="#333333">문의</text>
  
  <rect x="920" y="20" width="30" height="30" fill="transparent" stroke="#e0e0e0" stroke-width="1" rx="15" ry="15"/>
  <text x="935" y="38" font-family="Arial" font-size="14" text-anchor="middle" fill="#666666">🔍</text>
  
  <!-- 1. 히어로 섹션 (레퍼런스 스타일) -->
  <rect x="0" y="70" width="1000" height="320" fill="#f7f7f7"/>
  
  <!-- 히어로 이미지 배경 -->
  <rect x="50" y="70" width="950" height="320" fill="#333333"/>
  <rect x="50" y="70" width="950" height="320" fill="url(#hero-gradient)" opacity="0.7"/>
  
  <!-- 장식 요소 -->
  <circle cx="900" cy="200" r="100" fill="none" stroke="#ffcc00" stroke-width="10"/>
  <path d="M850 200 L950 200" stroke="#ff4d9e" stroke-width="20" stroke-linecap="round"/>
  
  <!-- 히어로 텍스트 -->
  <text x="100" y="170" font-family="Arial" font-size="16" font-weight="normal" text-anchor="start" fill="#ffffff">사회 진입 준비하는 은둔형 청년 지원사업</text>
  <text x="100" y="210" font-family="Arial" font-size="36" font-weight="bold" text-anchor="start" fill="#ffffff">나는 해내입니다</text>
  
  <!-- CTA 버튼 -->
  <rect x="100" y="240" width="120" height="40" fill="#ffffff" rx="20" ry="20"/>
  <text x="160" y="265" font-family="Arial" font-size="14" text-anchor="middle" fill="#333333">지원 신청</text>
  
  <!-- 하단 인디케이터 -->
  <circle cx="110" cy="310" r="5" fill="#ff4d9e"/>
  <circle cx="130" cy="310" r="5" fill="#e0e0e0"/>
  <circle cx="150" cy="310" r="5" fill="#e0e0e0"/>
  
  <!-- 플로팅 버튼 -->
  <circle cx="940" cy="310" r="30" fill="#ffcc00"/>
  <text x="940" y="317" font-family="Arial" font-size="18" text-anchor="middle" fill="#333333">✉️</text>
  
  <!-- 2. 사업 소개 섹션 -->
  <rect x="0" y="390" width="1000" height="350" fill="#ffffff"/>
  
  <text x="50" y="440" font-family="Arial" font-size="13" text-anchor="start" fill="#ff4d9e">사업 소개</text>
  
  <text x="50" y="480" font-family="Arial" font-size="28" font-weight="bold" text-anchor="start" fill="#333333">모든 사람들이</text>
  <text x="50" y="520" font-family="Arial" font-size="28" font-weight="bold" text-anchor="start" fill="#333333">공정하게 자신의 행복을</text>
  <text x="50" y="560" font-family="Arial" font-size="28" font-weight="bold" text-anchor="start" fill="#333333">실현시키는 세상</text>
  
  <text x="50" y="600" font-family="Arial" font-size="14" text-anchor="start" fill="#666666">지원과 동행으로 지친 은둔 청년의 새로운 시작을 만듭니다.</text>
  <text x="50" y="625" font-family="Arial" font-size="14" text-anchor="start" fill="#666666">함께 걸어가요.</text>
  
  <!-- 일러스트 요소 -->
  <circle cx="100" cy="680" r="30" fill="#ffffcc"/>
  <rect x="70" cy="685" width="30" height="50" fill="#ff4d9e" rx="10" ry="10"/>
  
  <!-- 사업 소개 카드 섹션 -->
  <rect x="450" y="420" width="500" height="300" fill="#f7f7f7" rx="20" ry="20"/>
  
  <!-- 핑크 탭 부분 -->
  <rect x="450" y="420" width="180" height="300" fill="#ff4d9e" rx="20" ry="20"/>
  
  <text x="540" y="480" font-family="Arial" font-size="16" font-weight="bold" text-anchor="middle" fill="#ffffff">청년지원사업</text>
  <rect x="485" y="510" width="110" height="40" fill="#ff6db3" rx="10" ry="10"/>
  <text x="540" y="535" font-family="Arial" font-size="14" text-anchor="middle" fill="#ffffff">심리지원사업</text>
  
  <rect x="485" y="560" width="110" height="40" fill="#ff6db3" rx="10" ry="10"/>
  <text x="540" y="585" font-family="Arial" font-size="14" text-anchor="middle" fill="#ffffff">취업지원사업</text>
  
  <rect x="485" y="610" width="110" height="40" fill="#ff6db3" rx="10" ry="10"/>
  <text x="540" y="635" font-family="Arial" font-size="14" text-anchor="middle" fill="#ffffff">생활지원사업</text>
  
  <!-- 카드 이미지 영역 -->
  <rect x="630" y="420" width="320" height="300" fill="#ffffff" rx="0" ry="20"/>
  
  <!-- 이미지 플레이스홀더 -->
  <rect x="650" y="440" width="280" height="240" fill="#f0f0f0" rx="10" ry="10"/>
  <text x="790" y="570" font-family="Arial" font-size="16" text-anchor="middle" fill="#666666">지원 프로그램 이미지</text>
  
  <text x="910" y="700" font-family="Arial" font-size="12" text-anchor="end" fill="#666666">더보기 &gt;</text>
  
  <!-- 3. 주요 사업 영역 -->
  <rect x="0" y="740" width="1000" height="400" fill="#f7f7f7"/>
  
  <text x="500" y="800" font-family="Arial" font-size="28" font-weight="bold" text-anchor="middle" fill="#333333">더 따뜻한 나눔을 실천합니다</text>
  
  <!-- 사업 카드 1 -->
  <rect x="50" y="840" width="450" height="240" fill="#ffffff" rx="10" ry="10"/>
  <rect x="50" y="840" width="450" height="180" fill="#e0e0e0" rx="10" ry="10"/>
  <text x="275" y="930" font-family="Arial" font-size="16" text-anchor="middle" fill="#666666">상담 프로그램 이미지</text>
  
  <text x="70" y="1050" font-family="Arial" font-size="18" font-weight="bold" text-anchor="start" fill="#333333">자소추가와 함께 청소년에게 멘토링을 기다리세요</text>
  <text x="70" y="1075" font-family="Arial" font-size="14" text-anchor="start" fill="#666666">자기개발 및 사회성 향상 기회 제공, 은둔청년 멘토링 프로그램</text>
  
  <!-- 사업 카드 2 -->
  <rect x="520" y="840" width="450" height="240" fill="#ffffff" rx="10" ry="10"/>
  <rect x="520" y="840" width="450" height="180" fill="#e0e0e0" rx="10" ry="10"/>
  <text x="745" y="930" font-family="Arial" font-size="16" text-anchor="middle" fill="#666666">생활지원 프로그램 이미지</text>
  
  <text x="540" y="1050" font-family="Arial" font-size="18" font-weight="bold" text-anchor="start" fill="#333333">주거공간과 함께 행복을 배달합니다</text>
  <text x="540" y="1075" font-family="Arial" font-size="14" text-anchor="start" fill="#666666">안정적인 주거환경 제공과 생활용품 지원으로 자립 기반 마련</text>
  
  <!-- 슬라이드 네비게이션 -->
  <circle cx="480" cy="1120" r="20" fill="#ffffff" stroke="#e0e0e0" stroke-width="1"/>
  <text x="480" y="1126" font-family="Arial" font-size="18" text-anchor="middle" fill="#666666">→</text>
  
  <!-- 4. 참여 방법 섹션 -->
  <rect x="0" y="1140" width="1000" height="350" fill="#ffffff"/>
  
  <text x="50" y="1190" font-family="Arial" font-size="13" text-anchor="start" fill="#ff4d9e">참여방법 안내</text>
  
  <text x="50" y="1230" font-family="Arial" font-size="28" font-weight="bold" text-anchor="start" fill="#333333">더 따뜻한 참여를 만들어 갑니다</text>
  
  <!-- 참여 방법 서비스 아이콘 카드 -->
  <rect x="550" y="1190" width="150" height="60" fill="#f7f7f7" rx="10" ry="10"/>
  <circle cx="580" cy="1220" r="15" fill="#ffcc00"/>
  <text x="580" y="1226" font-family="Arial" font-size="16" text-anchor="middle" fill="#333333">🤝</text>
  <text x="640" y="1225" font-family="Arial" font-size="16" font-weight="bold" text-anchor="start" fill="#333333">후원하기</text>
  
  <!-- 일러스트 이미지 -->
  <rect x="400" y="1280" width="200" height="150" fill="#f7f7f7" rx="10" ry="10"/>
  <text x="500" y="1355" font-family="Arial" font-size="16" text-anchor="middle" fill="#666666">참여 일러스트</text>
  
  <!-- 참여 방법 설명 -->
  <rect x="50" y="1280" width="320" height="60" fill="#f7f7f7" rx="10" ry="10"/>
  <text x="65" y="1320" font-family="Arial" font-size="14" text-anchor="start" fill="#333333">💬 후원 문의 Telecom Talk ID 신청하고 간편하게 상담해요</text>
  
  <rect x="50" y="1350" width="320" height="60" fill="#f7f7f7" rx="10" ry="10"/>
  <text x="65" y="1390" font-family="Arial" font-size="14" text-anchor="start" fill="#333333">👨‍👩‍👧‍👦 도시락배달 2기 모집</text>
  
  <rect x="50" y="1420" width="320" height="60" fill="#f7f7f7" rx="10" ry="10"/>
  <text x="65" y="1460" font-family="Arial" font-size="14" text-anchor="start" fill="#333333">🏠 독립 거주 자립지원을 함께해요</text>
  
  <!-- 모집 이미지 -->
  <rect x="630" y="1280" width="320" height="200" fill="#f7f7f7" rx="10" ry="10"/>
  <text x="790" y="1380" font-family="Arial" font-size="16" text-anchor="middle" fill="#666666">도시락배달 모집 이미지</text>
  
  <!-- 5. 행복을 주구하는 섹션 -->
  <rect x="0" y="1490" width="1000" height="350" fill="#f7f7f7"/>
  
  <text x="50" y="1540" font-family="Arial" font-size="28" font-weight="bold" text-anchor="start" fill="#333333">더 따뜻한 행복을 추구합니다</text>
  
  <!-- 행복 추구 카드 그리드 -->
  <rect x="50" y="1580" width="220" height="200" fill="#ffffff" rx="10" ry="10"/>
  <rect x="50" y="1580" width="220" height="140" fill="#333333" rx="10" ry="10"/>
  <text x="160" y="1650" font-family="Arial" font-size="14" text-anchor="middle" fill="#ffffff">청년과 함께하는 봉사활동</text>
  <text x="70" y="1745" font-family="Arial" font-size="14" font-weight="bold" text-anchor="start" fill="#333333">함께하는 봉사활동</text>
  
  <rect x="280" y="1580" width="220" height="200" fill="#ffffff" rx="10" ry="10"/>
  <rect x="280" y="1580" width="220" height="140" fill="#333333" rx="10" ry="10"/>
  <text x="390" y="1650" font-family="Arial" font-size="14" text-anchor="middle" fill="#ffffff">취업 멘토링 프로그램</text>
  <text x="300" y="1745" font-family="Arial" font-size="14" font-weight="bold" text-anchor="start" fill="#333333">취업지원 멘토링</text>
  
  <rect x="510" y="1580" width="220" height="200" fill="#ffffff" rx="10" ry="10"/>
  <rect x="510" y="1580" width="220" height="140" fill="#333333" rx="10" ry="10"/>
  <text x="620" y="1650" font-family="Arial" font-size="14" text-anchor="middle" fill="#ffffff">상담사례 이미지</text>
  <text x="530" y="1745" font-family="Arial" font-size="14" font-weight="bold" text-anchor="start" fill="#333333">심리상담 지원사업</text>
  
  <rect x="740" y="1580" width="220" height="200" fill="#ffffff" rx="10" ry="10"/>
  <rect x="740" y="1580" width="220" height="140" fill="#333333" rx="10" ry="10"/>
  <text x="850" y="1650" font-family="Arial" font-size="14" text-anchor="middle" fill="#ffffff">자립지원 교육 이미지</text>
  <text x="760" y="1745" font-family="Arial" font-size="14" font-weight="bold" text-anchor="start" fill="#333333">자립지원 교육 프로그램</text>
  
  <!-- 6. 공지사항 -->
  <rect x="0" y="1840" width="1000" height="260" fill="#ffffff"/>
  
  <!-- 공지사항 테이블 -->
  <line x1="50" y1="1890" x2="950" y2="1890" stroke="#e0e0e0" stroke-width="1"/>
  
  <text x="60" y="1920" font-family="Arial" font-size="14" text-anchor="start" fill="#333333">2024년 2월 지원금 사용 내역 공개</text>
  <text x="920" y="1920" font-family="Arial" font-size="14" text-anchor="end" fill="#666666">2024.02.25</text>
  <line x1="50" y1="1940" x2="950" y2="1940" stroke="#e0e0e0" stroke-width="1"/>
  
  <text x="60" y="1970" font-family="Arial" font-size="14" text-anchor="start" fill="#333333">은둔청년 자립교육 2기 참가자 모집 안내</text>
  <text x="920" y="1970" font-family="Arial" font-size="14" text-anchor="end" fill="#666666">2024.02.20</text>
  <line x1="50" y1="1990" x2="950" y2="1990" stroke="#e0e0e0" stroke-width="1"/>
  
  <text x="60" y="2020" font-family="Arial" font-size="14" text-anchor="start" fill="#333333">청년 멘토링 프로그램 신청자 모집</text>
  <text x="920" y="2020" font-family="Arial" font-size="14" text-anchor="end" fill="#666666">2024.02.15</text>
  <line x1="50" y1="2040" x2="950" y2="2040" stroke="#e0e0e0" stroke-width="1"/>
  
  <text x="60" y="2070" font-family="Arial" font-size="14" text-anchor="start" fill="#333333">도시락 나눔 봉사활동 참여 안내</text>
  <text x="920" y="2070" font-family="Arial" font-size="14" text-anchor="end" fill="#666666">2024.02.10</text>
  <line x1="50" y1="2090" x2="950" y2="2090" stroke="#e0e0e0" stroke-width="1"/>
  
  <!-- 7. 푸터 -->
  <rect x="0" y="2100" width="1000" height="100" fill="#444444"/>
  
  <!-- 푸터 로고 -->
  <rect x="50" y="2130" width="40" height="40" fill="#666666" rx="20" ry="20"/>
  <text x="70" y="2155" font-family="Arial" font-size="16" text-anchor="middle" fill="#ffffff">로고</text>
  
  <text x="120" y="2140" font-family="Arial" font-size="14" font-weight="bold" text-anchor="start" fill="#ffffff">은둔 청년 지원 플랫폼</text>
  <text x="120" y="2165" font-family="Arial" font-size="12" text-anchor="start" fill="#aaaaaa">©2025 은둔청년. 모든 권리 보유. 사업자등록번호 123-45-67890</text>
  
  <!-- 문의하기 버튼 -->
  <rect x="750" y="2135" width="200" height="40" fill="#666666" stroke="#999999" stroke-width="1" rx="20" ry="20"/>
  <text x="850" y="2160" font-family="Arial" font-size="14" text-anchor="middle" fill="#ffffff">문의하기</text>
  
  <!-- 가장 상단으로 돌아가기 버튼 -->
  <circle cx="970" cy="2150" r="20" fill="#ffcc00" rx="10" ry="10"/>
  <text x="970" y="2155" font-family="Arial" font-size="16" text-anchor="middle" fill="#333333">↑</text>
  
  <!-- 그라디언트 정의 -->
  <defs>
    <linearGradient id="hero-gradient" x1="0%" y1="0%" x2="100%" y2="0%">
      <stop offset="0%" style="stop-color:#000000;stop-opacity:0.8" />
      <stop offset="100%" style="stop-color:#000000;stop-opacity:0.4" />
    </linearGradient>
  </defs>
</svg>
