<svg xmlns="http://www.w3.org/2000/svg" viewBox="0 0 800 1800">
  <!-- 배경 -->
  <rect width="800" height="1800" fill="#f8f8f8"/>
  
  <!-- 헤더 -->
  <rect x="0" y="0" width="800" height="60" fill="#ffffff"/>
  <circle cx="50" cy="30" r="20" fill="#FF5FA2"/>
  <text x="80" y="35" font-family="Arial" font-size="18" fill="#333333">청년지기</text>
  
  <!-- 네비게이션 메뉴 -->
  <text x="200" y="35" font-family="Arial" font-size="14" fill="#666666">기관소개</text>
  <text x="280" y="35" font-family="Arial" font-size="14" fill="#666666">지원사업</text>
  <text x="360" y="35" font-family="Arial" font-size="14" fill="#666666">프로그램</text>
  <text x="440" y="35" font-family="Arial" font-size="14" fill="#666666">참여하기</text>
  <text x="520" y="35" font-family="Arial" font-size="14" fill="#666666">문의</text>
  
  <text x="730" y="35" font-family="Arial" font-size="14" fill="#666666">로그인</text>
  
  <!-- 히어로 섹션 -->
  <rect x="0" y="60" width="800" height="300" fill="#dddddd"/>
  <text x="50" y="160" font-family="Arial" font-weight="bold" font-size="30" fill="#333333">혼자가 아니야,</text>
  <text x="50" y="200" font-family="Arial" font-weight="bold" font-size="30" fill="#333333">우리는 함께할 수 있어.</text>
  <text x="50" y="230" font-family="Arial" font-size="16" fill="#666666">사회와 단절된 청년들에게 다시 한 걸음을 내디딜 기회를 제공합니다.</text>
  
  <rect x="50" y="260" width="150" height="40" rx="20" fill="#4A8FFF"/>
  <text x="80" y="285" font-family="Arial" font-size="15" fill="#ffffff">지원 프로그램 보기</text>
  
  <rect x="210" y="260" width="120" height="40" rx="20" fill="none" stroke="#666666"/>
  <text x="235" y="285" font-family="Arial" font-size="15" fill="#666666">더 알아보기</text>
  
  <!-- 노란 원형 그래픽 요소 -->
  <path d="M600,80 A200,200 0 0,1 750,300" stroke="#FFCC00" stroke-width="20" fill="none"/>
  
  <!-- 문제 소개 & 데이터 섹션 -->
  <text x="50" y="400" font-family="Arial" font-size="12" fill="#FF5FA2">은둔 청년 현황</text>
  <text x="50" y="430" font-family="Arial" font-weight="bold" font-size="24" fill="#333333">모든 사람들이</text>
  <text x="50" y="460" font-family="Arial" font-weight="bold" font-size="24" fill="#333333">공정하게 자신의 행복을</text>
  <text x="50" y="490" font-family="Arial" font-weight="bold" font-size="24" fill="#333333">실현시키는 세상</text>
  
  <text x="50" y="515" font-family="Arial" font-size="12" fill="#666666">청년의 현실적인 어려움과 극복을 위한 지원책을</text>
  <text x="50" y="530" font-family="Arial" font-size="12" fill="#666666">함께 만들어갑니다</text>
  
  <!-- 데이터 시각화 -->
  <rect x="230" y="380" width="520" height="180" rx="15" fill="#FFE6F2"/>
  
  <!-- 데이터 카드들 -->
  <rect x="250" y="400" width="120" height="50" rx="5" fill="#FF5FA2"/>
  <text x="270" y="430" font-family="Arial" font-size="12" fill="#ffffff">청년 10명 중 1명</text>
  <text x="270" y="445" font-family="Arial" font-size="10" fill="#ffffff">사회적 고립 경험</text>
  
  <rect x="250" y="460" width="120" height="50" rx="5" fill="#FF5FA2"/>
  <text x="270" y="490" font-family="Arial" font-size="12" fill="#ffffff">은둔 청년 75%</text>
  <text x="270" y="505" font-family="Arial" font-size="10" fill="#ffffff">자립 의지 있음</text>
  
  <rect x="380" y="400" width="120" height="50" rx="5" fill="#FF5FA2"/>
  <text x="400" y="430" font-family="Arial" font-size="12" fill="#ffffff">지원이 필요한</text>
  <text x="400" y="445" font-family="Arial" font-size="10" fill="#ffffff">청년 60%</text>
  
  <rect x="380" y="460" width="120" height="50" rx="5" fill="#FF5FA2"/>
  <text x="400" y="490" font-family="Arial" font-size="12" fill="#ffffff">심리 지원 요구</text>
  <text x="400" y="505" font-family="Arial" font-size="10" fill="#ffffff">청년 80%</text>
  
  <!-- 데이터 시각화 이미지 -->
  <rect x="510" y="390" width="220" height="160" rx="10" fill="#ffffff"/>
  
  <!-- 캐릭터 일러스트 -->
  <circle cx="80" cy="420" r="30" fill="#FFFFCC"/>
  <circle cx="100" cy="450" r="10" fill="#FF8888"/>
  
  <!-- 주요 서비스 & 프로그램 소개 -->
  <rect x="50" y="580" width="350" height="100" rx="10" fill="#ffffff" stroke="#eeeeee"/>
  <text x="80" y="630" font-family="Arial" font-weight="bold" font-size="16" fill="#333333">심리상담지원</text>
  <circle cx="200" cy="630" r="15" fill="#FF5FA2"/>
  <path d="M190,630 L210,630 M200,620 L200,640" stroke="#ffffff" stroke-width="2"/>
  
  <rect x="410" y="580" width="350" height="100" rx="10" fill="#ffffff" stroke="#eeeeee"/>
  <text x="440" y="630" font-family="Arial" font-weight="bold" font-size="16" fill="#333333">취업 & 자립 지원</text>
  <circle cx="560" cy="630" r="15" fill="#FFCC00"/>
  <path d="M550,630 L570,630 M560,620 L560,640" stroke="#ffffff" stroke-width="2"/>
  
  <!-- 청년들의 이야기 섹션 -->
  <text x="50" y="720" font-family="Arial" font-weight="bold" font-size="24" fill="#333333">더 따뜻한 나눔을 실천합니다</text>
  
  <rect x="50" y="740" width="230" height="150" rx="10" fill="#dddddd"/>
  <rect x="290" y="740" width="230" height="150" rx="10" fill="#dddddd"/>
  <rect x="530" y="740" width="230" height="150" rx="10" fill="#dddddd" opacity="0.5"/>
  
  <text x="60" y="910" font-family="Arial" font-weight="bold" font-size="14" fill="#333333">지소영(가명)의 청소년에서 성인으로 가는 과정</text>
  <text x="60" y="930" font-family="Arial" font-size="12" fill="#666666">NEET, 이코노미행동가형 성격으로</text>
  <text x="60" y="945" font-family="Arial" font-size="12" fill="#666666">필요한 지원책은...</text>
  
  <text x="290" y="910" font-family="Arial" font-weight="bold" font-size="14" fill="#333333">우울감과의 동행 이겨낸 영민(가명)이</text>
  <text x="290" y="930" font-family="Arial" font-size="12" fill="#666666">좌절하기 쉬운 환경에서도 그는</text>
  <text x="290" y="945" font-family="Arial" font-size="12" fill="#666666">이렇게 성장했습니다...</text>
  
  <!-- 화살표 네비게이션 -->
  <circle cx="700" cy="820" r="20" fill="#ffffff" stroke="#cccccc"/>
  <path d="M695,820 L710,820 M705,815 L710,820 L705,825" stroke="#666666" stroke-width="2" fill="none"/>
  
  <!-- 추가 서비스 소개 -->
  <text x="50" y="1000" font-family="Arial" font-size="12" fill="#FF5FA2">테마별 지원</text>
  <text x="50" y="1030" font-family="Arial" font-weight="bold" font-size="24" fill="#333333">더 따뜻한 참여를 만들어 갑니다</text>
  
  <!-- 추가 서비스 카드 -->
  <rect x="50" y="1050" width="350" height="180" fill="#ffffff" stroke="#eeeeee"/>
  <rect x="60" y="1070" width="250" height="40" rx="20" fill="#FF5FA2"/>
  <text x="80" y="1095" font-family="Arial" font-size="14" fill="#ffffff">1:1 맞춤형 Therapy Talk 심리상담</text>
  <text x="80" y="1095" font-family="Arial" font-size="14" fill="#ffffff">전문가가 함께합니다</text>
  
  <rect x="60" y="1120" width="330" height="40" rx="5" fill="#f8f8f8"/>
  <text x="80" y="1145" font-family="Arial" font-size="14" fill="#666666">Doctor Kim(배인경) 선생님</text>
  <circle cx="350" cy="1140" r="10" fill="#ffffff" stroke="#cccccc"/>
  <path d="M350,1135 L350,1145 M345,1140 L355,1140" stroke="#cccccc" stroke-width="1"/>
  
  <rect x="60" y="1170" width="330" height="40" rx="5" fill="#f8f8f8"/>
  <text x="80" y="1195" font-family="Arial" font-size="14" fill="#666666">심리 치유 세션 안내</text>
  <circle cx="350" cy="1190" r="10" fill="#ffffff" stroke="#cccccc"/>
  <path d="M350,1185 L350,1195 M345,1190 L355,1190" stroke="#cccccc" stroke-width="1"/>
  
  <!-- 추가 정보 및 일러스트 -->
  <rect x="410" y="1050" width="350" height="180" fill="#ffffff" stroke="#eeeeee"/>
  <text x="430" y="1080" font-family="Arial" font-weight="bold" font-size="18" fill="#333333">도시농업 2기 모집</text>
  <rect x="430" y="1100" width="310" height="110" rx="10" fill="#dddddd"/>
  
  <!-- 특별 액션 캐릭터 일러스트 -->
  <circle cx="650" cy="1010" r="30" fill="#ffeeee"/>
  <circle cx="670" cy="1020" r="25" fill="#ffeeee"/>
  
  <!-- 행복 추구 방법 섹션 -->
  <text x="50" y="1280" font-family="Arial" font-weight="bold" font-size="24" fill="#333333">더 따뜻한 행복을 추구합니다</text>
  
  <!-- 행복 추구 카드들 -->
  <rect x="50" y="1310" width="170" height="120" rx="10" fill="#dddddd"/>
  <rect x="230" y="1310" width="170" height="120" rx="10" fill="#dddddd"/>
  <rect x="410" y="1310" width="170" height="120" rx="10" fill="#dddddd"/>
  <rect x="590" y="1310" width="170" height="120" rx="10" fill="#dddddd"/>
  
  <text x="70" y="1380" font-family="Arial" font-weight="bold" font-size="14" fill="#ffffff">심리 상담 지원</text>
  <text x="250" y="1380" font-family="Arial" font-weight="bold" font-size="14" fill="#ffffff">취업 연계 프로그램</text>
  <text x="430" y="1380" font-family="Arial" font-weight="bold" font-size="14" fill="#ffffff">자기개발 커뮤니티</text>
  <text x="610" y="1380" font-family="Arial" font-weight="bold" font-size="14" fill="#ffffff">생활 지원 서비스</text>
  
  <!-- 공지사항 섹션 -->
  <rect x="50" y="1460" width="700" height="180" fill="#f8f8f8"/>
  <text x="70" y="1490" font-family="Arial" font-size="14" fill="#666666">청년 심리 안정 프로그램 '마음쉼' 참가자 모집</text>
  <text x="650" y="1490" font-family="Arial" font-size="12" fill="#999999">2025.02.20</text>
  
  <text x="70" y="1520" font-family="Arial" font-size="14" fill="#666666">2025년 1분기 취업 지원 프로그램 신청 안내</text>
  <text x="650" y="1520" font-family="Arial" font-size="12" fill="#999999">2025.02.18</text>
  
  <text x="70" y="1550" font-family="Arial" font-size="14" fill="#666666">은둔 청년을 위한 단계별 사회 적응 가이드북 출시</text>
  <text x="650" y="1550" font-family="Arial" font-size="12" fill="#999999">2025.02.15</text>
  
  <text x="70" y="1580" font-family="Arial" font-size="14" fill="#666666">1:1 멘토링 프로그램 멘토 지원자 모집 중</text>
  <text x="650" y="1580" font-family="Arial" font-size="12" fill="#999999">2025.02.10</text>
  
  <text x="70" y="1610" font-family="Arial" font-size="14" fill="#666666">청년 자립 지원 기금 마련을 위한 후원사 모집</text>
  <text x="650" y="1610" font-family="Arial" font-size="12" fill="#999999">2025.02.05</text>
  
  <!-- 푸터 섹션 -->
  <rect x="0" y="1660" width="800" height="140" fill="#333333"/>
  <circle cx="50" cy="1700" r="20" fill="#ffffff" opacity="0.8"/>
  <text x="80" y="1705" font-family="Arial" font-weight="bold" font-size="16" fill="#ffffff">청년을 돕는 청년지기</text>
  
  <text x="50" y="1730" font-family="Arial" font-size="12" fill="#cccccc">주소: 서울시 강남구 역삼로 123 청년센터 5층</text>
  <text x="50" y="1750" font-family="Arial" font-size="12" fill="#cccccc">연락처: 02-123-4567 | 이메일: help@youthsupport.org</text>
  <text x="50" y="1770" font-family="Arial" font-size="12" fill="#cccccc">사업자등록번호: 123-45-67890 | 대표: 홍길동</text>
  
  <rect x="650" y="1740" width="120" height="30" rx="15" fill="#555555"/>
  <text x="670" y="1760" font-family="Arial" font-size="12" fill="#ffffff">문의하기</text>
  
  <!-- 상단 이동 버튼 -->
  <circle cx="760" cy="1650" r="15" fill="#ffcc00"/>
  <path d="M755,1655 L760,1650 L765,1655" stroke="#ffffff" stroke-width="2" fill="none"/>
</svg>
