<svg width="360" height="160" viewBox="0 0 360 160" fill="none" xmlns="http://www.w3.org/2000/svg">
<path d="M70 38.248V61.48L93.52 61.384C99.792 61.32 106.128 61.064 112.528 60.616C118.928 60.168 124.912 59.496 130.48 58.6V76.36H50.8V38.248H70ZM98.8 95.752H82.48V119.464H63.28V95.752H50.8V80.872H130.48V95.752H118V119.464H98.8V95.752ZM170.674 98.632H182.77V38.248H199.474V119.464H182.77V112.552H170.674V98.632ZM179.794 58.6C179.794 61.416 179.41 64.04 178.642 66.472C177.938 68.904 176.914 71.048 175.57 72.904C174.226 74.696 172.562 76.136 170.578 77.224C168.658 78.248 166.45 78.76 163.954 78.76H155.41C152.914 78.76 150.674 78.248 148.69 77.224C146.77 76.136 145.138 74.696 143.794 72.904C142.45 71.048 141.394 68.904 140.626 66.472C139.922 64.04 139.57 61.416 139.57 58.6C139.57 55.784 139.922 53.16 140.626 50.728C141.394 48.232 142.45 46.056 143.794 44.2C145.138 42.344 146.77 40.904 148.69 39.88C150.674 38.792 152.914 38.248 155.41 38.248H163.954C166.45 38.248 168.658 38.792 170.578 39.88C172.562 40.904 174.226 42.344 175.57 44.2C176.914 46.056 177.938 48.232 178.642 50.728C179.41 53.16 179.794 55.784 179.794 58.6ZM203.026 38.248H219.73V119.464H203.026V38.248ZM159.634 41.32C159.506 47.4 157.938 51.784 154.93 54.472C151.922 57.096 147.666 58.472 142.162 58.6C147.666 58.728 151.922 60.104 154.93 62.728C157.938 65.352 159.506 69.672 159.634 75.688C159.762 69.672 161.33 65.352 164.338 62.728C167.346 60.04 171.602 58.632 177.106 58.504C171.602 58.376 167.346 57 164.338 54.376C161.33 51.752 159.762 47.4 159.634 41.32ZM140.05 81.064H179.41V95.944H167.41V119.464H150.13V95.944H140.05V81.064ZM229.3 60.328C229.3 57 229.844 53.928 230.932 51.112C232.02 48.232 233.652 45.8 235.828 43.816C238.068 41.768 240.884 40.168 244.276 39.016C247.668 37.864 251.636 37.288 256.18 37.288C260.724 37.288 264.692 37.864 268.084 39.016C271.476 40.168 274.26 41.768 276.436 43.816C278.676 45.8 280.34 48.232 281.428 51.112C282.516 53.928 283.06 57 283.06 60.328V97.384C283.06 100.776 282.516 103.88 281.428 106.696C280.34 109.512 278.676 111.912 276.436 113.896C274.26 115.944 271.476 117.544 268.084 118.696C264.692 119.848 260.724 120.424 256.18 120.424C251.636 120.424 247.668 119.848 244.276 118.696C240.884 117.544 238.068 115.944 235.828 113.896C233.652 111.912 232.02 109.512 230.932 106.696C229.844 103.88 229.3 100.776 229.3 97.384V60.328ZM289.78 38.248H308.98V119.464H289.78V38.248ZM256.18 40.36C256.18 47.4 255.412 53.352 253.876 58.216C252.404 63.08 250.484 67.048 248.116 70.12C245.748 73.128 243.06 75.336 240.052 76.744C237.108 78.088 234.196 78.824 231.316 78.952C234.196 79.08 237.108 79.848 240.052 81.256C243.06 82.6 245.748 84.776 248.116 87.784C250.484 90.792 252.404 94.728 253.876 99.592C255.412 104.392 256.18 110.312 256.18 117.352C256.18 110.312 256.916 104.392 258.388 99.592C259.924 94.728 261.876 90.792 264.244 87.784C266.612 84.712 269.268 82.504 272.212 81.16C275.156 79.752 278.068 78.984 280.948 78.856C278.068 78.728 275.156 77.992 272.212 76.648C269.268 75.24 266.612 73.032 264.244 70.024C261.876 67.016 259.924 63.08 258.388 58.216C256.916 53.352 256.18 47.4 256.18 40.36Z" fill="#1E88E5"/>
</svg>
